<mxfile host="app.diagrams.net" modified="2024-04-08T22:05:44.560Z" agent="Mozilla/5.0 (Windows NT 10.0; Win64; x64) AppleWebKit/537.36 (KHTML, like Gecko) Chrome/123.0.0.0 Safari/537.36" etag="ke-6bvtZWzWztN3yMTo2" version="24.2.3" type="device">
  <diagram name="PÃ¡gina-1" id="NKFgEqGkxe1qv2dZLXt7">
    <mxGraphModel dx="932" dy="818" grid="1" gridSize="10" guides="1" tooltips="1" connect="1" arrows="1" fold="1" page="1" pageScale="1" pageWidth="827" pageHeight="1169" math="0" shadow="0">
      <root>
        <mxCell id="0" />
        <mxCell id="1" parent="0" />
        <mxCell id="ochfXIyHOkyKtOQnSNJS-15" style="edgeStyle=orthogonalEdgeStyle;rounded=0;orthogonalLoop=1;jettySize=auto;html=1;exitX=0.5;exitY=0;exitDx=0;exitDy=0;entryX=0;entryY=0.5;entryDx=0;entryDy=0;" edge="1" parent="1" source="ochfXIyHOkyKtOQnSNJS-1" target="ochfXIyHOkyKtOQnSNJS-2">
          <mxGeometry relative="1" as="geometry" />
        </mxCell>
        <mxCell id="ochfXIyHOkyKtOQnSNJS-16" style="edgeStyle=orthogonalEdgeStyle;rounded=0;orthogonalLoop=1;jettySize=auto;html=1;exitX=1;exitY=0.5;exitDx=0;exitDy=0;entryX=0;entryY=0.5;entryDx=0;entryDy=0;" edge="1" parent="1" source="ochfXIyHOkyKtOQnSNJS-1" target="ochfXIyHOkyKtOQnSNJS-3">
          <mxGeometry relative="1" as="geometry" />
        </mxCell>
        <mxCell id="ochfXIyHOkyKtOQnSNJS-17" style="edgeStyle=orthogonalEdgeStyle;rounded=0;orthogonalLoop=1;jettySize=auto;html=1;exitX=0.5;exitY=1;exitDx=0;exitDy=0;entryX=0.5;entryY=1;entryDx=0;entryDy=0;" edge="1" parent="1" source="ochfXIyHOkyKtOQnSNJS-1" target="ochfXIyHOkyKtOQnSNJS-6">
          <mxGeometry relative="1" as="geometry" />
        </mxCell>
        <mxCell id="ochfXIyHOkyKtOQnSNJS-1" value="PlayerHome" style="ellipse;whiteSpace=wrap;html=1;rotation=0;" vertex="1" parent="1">
          <mxGeometry x="69.98" y="340.44" width="110" height="80" as="geometry" />
        </mxCell>
        <mxCell id="ochfXIyHOkyKtOQnSNJS-32" style="edgeStyle=orthogonalEdgeStyle;rounded=0;orthogonalLoop=1;jettySize=auto;html=1;exitX=1;exitY=0.5;exitDx=0;exitDy=0;" edge="1" parent="1" source="ochfXIyHOkyKtOQnSNJS-2" target="ochfXIyHOkyKtOQnSNJS-28">
          <mxGeometry relative="1" as="geometry" />
        </mxCell>
        <mxCell id="ochfXIyHOkyKtOQnSNJS-2" value="GamesSearch" style="ellipse;whiteSpace=wrap;html=1;rotation=0;" vertex="1" parent="1">
          <mxGeometry x="200" y="190" width="110" height="80" as="geometry" />
        </mxCell>
        <mxCell id="ochfXIyHOkyKtOQnSNJS-18" style="edgeStyle=orthogonalEdgeStyle;rounded=0;orthogonalLoop=1;jettySize=auto;html=1;exitX=1;exitY=0.5;exitDx=0;exitDy=0;entryX=0;entryY=0.5;entryDx=0;entryDy=0;" edge="1" parent="1" source="ochfXIyHOkyKtOQnSNJS-3" target="ochfXIyHOkyKtOQnSNJS-4">
          <mxGeometry relative="1" as="geometry" />
        </mxCell>
        <mxCell id="ochfXIyHOkyKtOQnSNJS-3" value="SessionSearch" style="ellipse;whiteSpace=wrap;html=1;rotation=0;" vertex="1" parent="1">
          <mxGeometry x="270" y="340.44" width="110" height="80" as="geometry" />
        </mxCell>
        <mxCell id="ochfXIyHOkyKtOQnSNJS-10" style="edgeStyle=orthogonalEdgeStyle;rounded=0;orthogonalLoop=1;jettySize=auto;html=1;exitX=1;exitY=0.5;exitDx=0;exitDy=0;entryX=0;entryY=0.5;entryDx=0;entryDy=0;" edge="1" parent="1" source="ochfXIyHOkyKtOQnSNJS-4" target="ochfXIyHOkyKtOQnSNJS-5">
          <mxGeometry relative="1" as="geometry" />
        </mxCell>
        <mxCell id="ochfXIyHOkyKtOQnSNJS-4" value="Sessions" style="ellipse;whiteSpace=wrap;html=1;rotation=0;" vertex="1" parent="1">
          <mxGeometry x="490" y="340.44" width="110" height="80" as="geometry" />
        </mxCell>
        <mxCell id="ochfXIyHOkyKtOQnSNJS-8" style="edgeStyle=orthogonalEdgeStyle;rounded=0;orthogonalLoop=1;jettySize=auto;html=1;exitX=0.5;exitY=0;exitDx=0;exitDy=0;entryX=0.5;entryY=1;entryDx=0;entryDy=0;" edge="1" parent="1" source="ochfXIyHOkyKtOQnSNJS-5" target="ochfXIyHOkyKtOQnSNJS-7">
          <mxGeometry relative="1" as="geometry" />
        </mxCell>
        <mxCell id="ochfXIyHOkyKtOQnSNJS-9" style="edgeStyle=orthogonalEdgeStyle;rounded=0;orthogonalLoop=1;jettySize=auto;html=1;exitX=0.5;exitY=1;exitDx=0;exitDy=0;entryX=0.5;entryY=0;entryDx=0;entryDy=0;" edge="1" parent="1" source="ochfXIyHOkyKtOQnSNJS-5" target="ochfXIyHOkyKtOQnSNJS-6">
          <mxGeometry relative="1" as="geometry" />
        </mxCell>
        <mxCell id="ochfXIyHOkyKtOQnSNJS-5" value="SessionDetails" style="ellipse;whiteSpace=wrap;html=1;rotation=0;" vertex="1" parent="1">
          <mxGeometry x="690" y="340.44" width="110" height="80" as="geometry" />
        </mxCell>
        <mxCell id="ochfXIyHOkyKtOQnSNJS-11" style="edgeStyle=orthogonalEdgeStyle;rounded=0;orthogonalLoop=1;jettySize=auto;html=1;exitX=0;exitY=0.5;exitDx=0;exitDy=0;entryX=0.5;entryY=1;entryDx=0;entryDy=0;" edge="1" parent="1" source="ochfXIyHOkyKtOQnSNJS-6" target="ochfXIyHOkyKtOQnSNJS-4">
          <mxGeometry relative="1" as="geometry" />
        </mxCell>
        <mxCell id="ochfXIyHOkyKtOQnSNJS-6" value="PlayerDetails" style="ellipse;whiteSpace=wrap;html=1;rotation=0;" vertex="1" parent="1">
          <mxGeometry x="690" y="490" width="110" height="80" as="geometry" />
        </mxCell>
        <mxCell id="ochfXIyHOkyKtOQnSNJS-12" style="edgeStyle=orthogonalEdgeStyle;rounded=0;orthogonalLoop=1;jettySize=auto;html=1;exitX=0;exitY=1;exitDx=0;exitDy=0;" edge="1" parent="1" source="ochfXIyHOkyKtOQnSNJS-7">
          <mxGeometry relative="1" as="geometry">
            <mxPoint x="550" y="340" as="targetPoint" />
          </mxGeometry>
        </mxCell>
        <mxCell id="ochfXIyHOkyKtOQnSNJS-7" value="GameDetails" style="ellipse;whiteSpace=wrap;html=1;rotation=0;" vertex="1" parent="1">
          <mxGeometry x="690" y="190" width="110" height="80" as="geometry" />
        </mxCell>
        <mxCell id="ochfXIyHOkyKtOQnSNJS-20" value="Previous" style="text;html=1;align=center;verticalAlign=middle;resizable=0;points=[];autosize=1;strokeColor=none;fillColor=none;" vertex="1" parent="1">
          <mxGeometry x="430" y="430" width="70" height="30" as="geometry" />
        </mxCell>
        <mxCell id="ochfXIyHOkyKtOQnSNJS-22" value="" style="curved=1;endArrow=classic;html=1;rounded=0;exitX=1;exitY=0;exitDx=0;exitDy=0;entryX=1;entryY=0.394;entryDx=0;entryDy=0;entryPerimeter=0;" edge="1" parent="1" source="ochfXIyHOkyKtOQnSNJS-4" target="ochfXIyHOkyKtOQnSNJS-4">
          <mxGeometry width="50" height="50" relative="1" as="geometry">
            <mxPoint x="630" y="350" as="sourcePoint" />
            <mxPoint x="680" y="300" as="targetPoint" />
            <Array as="points">
              <mxPoint x="680" y="350" />
              <mxPoint x="630" y="300" />
            </Array>
          </mxGeometry>
        </mxCell>
        <mxCell id="ochfXIyHOkyKtOQnSNJS-23" value="Next" style="text;html=1;align=center;verticalAlign=middle;resizable=0;points=[];autosize=1;strokeColor=none;fillColor=none;" vertex="1" parent="1">
          <mxGeometry x="590" y="290" width="50" height="30" as="geometry" />
        </mxCell>
        <mxCell id="ochfXIyHOkyKtOQnSNJS-24" value="" style="curved=1;endArrow=classic;html=1;rounded=0;exitX=0.073;exitY=0.719;exitDx=0;exitDy=0;exitPerimeter=0;entryX=0.309;entryY=0.994;entryDx=0;entryDy=0;entryPerimeter=0;" edge="1" parent="1" source="ochfXIyHOkyKtOQnSNJS-4" target="ochfXIyHOkyKtOQnSNJS-4">
          <mxGeometry width="50" height="50" relative="1" as="geometry">
            <mxPoint x="480" y="510" as="sourcePoint" />
            <mxPoint x="530" y="460" as="targetPoint" />
            <Array as="points">
              <mxPoint x="510" y="450" />
              <mxPoint x="530" y="510" />
              <mxPoint x="480" y="460" />
            </Array>
          </mxGeometry>
        </mxCell>
        <mxCell id="ochfXIyHOkyKtOQnSNJS-27" value="" style="curved=1;endArrow=classic;html=1;rounded=0;exitX=0.309;exitY=-0.025;exitDx=0;exitDy=0;exitPerimeter=0;entryX=1;entryY=0;entryDx=0;entryDy=0;" edge="1" parent="1" source="ochfXIyHOkyKtOQnSNJS-28" target="ochfXIyHOkyKtOQnSNJS-28">
          <mxGeometry width="50" height="50" relative="1" as="geometry">
            <mxPoint x="510" y="170" as="sourcePoint" />
            <mxPoint x="560" y="120" as="targetPoint" />
            <Array as="points">
              <mxPoint x="560" y="170" />
              <mxPoint x="510" y="120" />
            </Array>
          </mxGeometry>
        </mxCell>
        <mxCell id="ochfXIyHOkyKtOQnSNJS-33" style="edgeStyle=orthogonalEdgeStyle;rounded=0;orthogonalLoop=1;jettySize=auto;html=1;exitX=1;exitY=0.5;exitDx=0;exitDy=0;entryX=0;entryY=0.5;entryDx=0;entryDy=0;" edge="1" parent="1" source="ochfXIyHOkyKtOQnSNJS-28" target="ochfXIyHOkyKtOQnSNJS-7">
          <mxGeometry relative="1" as="geometry" />
        </mxCell>
        <mxCell id="ochfXIyHOkyKtOQnSNJS-28" value="Games" style="ellipse;whiteSpace=wrap;html=1;rotation=0;" vertex="1" parent="1">
          <mxGeometry x="400" y="190" width="110" height="80" as="geometry" />
        </mxCell>
        <mxCell id="ochfXIyHOkyKtOQnSNJS-29" value="Next" style="text;html=1;align=center;verticalAlign=middle;resizable=0;points=[];autosize=1;strokeColor=none;fillColor=none;" vertex="1" parent="1">
          <mxGeometry x="485" y="98" width="50" height="30" as="geometry" />
        </mxCell>
        <mxCell id="ochfXIyHOkyKtOQnSNJS-30" value="" style="curved=1;endArrow=classic;html=1;rounded=0;exitX=0.073;exitY=0.8;exitDx=0;exitDy=0;exitPerimeter=0;entryX=0.5;entryY=1;entryDx=0;entryDy=0;" edge="1" parent="1" source="ochfXIyHOkyKtOQnSNJS-28" target="ochfXIyHOkyKtOQnSNJS-28">
          <mxGeometry width="50" height="50" relative="1" as="geometry">
            <mxPoint x="420" y="330" as="sourcePoint" />
            <mxPoint x="470" y="280" as="targetPoint" />
            <Array as="points">
              <mxPoint x="470" y="330" />
              <mxPoint x="420" y="280" />
            </Array>
          </mxGeometry>
        </mxCell>
        <mxCell id="ochfXIyHOkyKtOQnSNJS-31" value="Previous" style="text;html=1;align=center;verticalAlign=middle;resizable=0;points=[];autosize=1;strokeColor=none;fillColor=none;" vertex="1" parent="1">
          <mxGeometry x="350" y="270" width="70" height="30" as="geometry" />
        </mxCell>
      </root>
    </mxGraphModel>
  </diagram>
</mxfile>
